<?xml version="1.0" encoding="utf-8"?>


<svg>
<style type="text/css">
	.st0{fill:none;stroke:#000000;stroke-width:3.4632;stroke-linejoin:round;stroke-miterlimit:10;}
</style>

				<path d="M194.1,212.74h-32.35c-0.92,0-1.68-0.72-1.73-1.64l-0.01-0.18c-0.02-0.27-0.04-0.53-0.02-0.8
					c0.74-9.52-2.07-18.64-8.59-27.88c-4.89-6.92-11.85-12.56-21.26-17.21v45.35c0,0.96-0.77,1.73-1.73,1.73H97.1
					c-0.96,0-1.73-0.77-1.73-1.73v-45.29c-7.65,3.78-13.58,8.19-18.1,13.44c-8.68,10.07-12.47,20.66-11.61,32.35
					c0.04,0.48-0.13,0.95-0.46,1.31c-0.33,0.35-0.79,0.55-1.27,0.55H31.58c-0.9,0-1.66-0.69-1.73-1.6
					c-0.01-0.18-0.03-0.37-0.05-0.55c-0.05-0.47-0.1-0.96-0.09-1.49c0.09-7.92,1.41-16.08,3.92-24.23
					c7.38-24.03,22.43-41.63,44.72-52.32c1.03-0.5,2.08-0.97,3.13-1.45H30.96c-0.96,0-1.73-0.77-1.73-1.73V97.54
					c0-0.96,0.77-1.73,1.73-1.73h49.69c-10.72-4.81-20-11.32-27.64-19.43c-8.66-9.17-15.09-20.3-19.12-33.06
					c-2.72-8.59-4.16-17.47-4.41-27.13c-0.01-0.47,0.16-0.92,0.49-1.25c0.33-0.33,0.77-0.52,1.24-0.52h32.73
					c0.48,0,0.93,0.2,1.26,0.54c0.33,0.35,0.5,0.81,0.47,1.29c-0.39,6.76,0.76,13.28,3.4,19.37c4.23,9.73,11.1,17.4,21,23.43
					c1.61,0.98,3.32,1.88,5.13,2.83c0.06,0.03,0.12,0.07,0.19,0.1V16.65c0-0.96,0.77-1.73,1.73-1.73h31.39
					c0.96,0,1.73,0.77,1.73,1.73v45.5c0.41-0.24,0.81-0.47,1.22-0.71c2.56-1.49,4.99-2.89,7.27-4.43
					c9.26-6.22,15.76-14.68,19.32-25.14c1.65-4.84,2.29-9.95,1.97-15.63c-0.03-0.48,0.14-0.94,0.47-1.29s0.78-0.54,1.26-0.54h32.35
					c0.9,0,1.65,0.69,1.73,1.59c0.01,0.16,0.03,0.33,0.05,0.49c0.05,0.42,0.1,0.89,0.09,1.4c-0.3,12.15-2.94,23.89-7.83,34.91
					c-8.3,18.67-21.86,32.64-40.32,41.53c-1.2,0.58-2.41,1.14-3.64,1.69h50.67c0.96,0,1.73,0.77,1.73,1.73v31.68
					c0,0.96-0.77,1.73-1.73,1.73h-50.15c4.07,1.91,7.85,3.95,11.46,6.18c7.57,4.68,14.21,10.42,19.74,17.08
					c8.89,10.71,14.94,23.35,17.99,37.57c1.19,5.57,2.36,12.2,1.95,19.11C195.77,212.02,195.01,212.74,194.1,212.74z M163.51,209.27
					h28.92c0.13-5.93-0.9-11.66-1.95-16.55c-2.93-13.67-8.74-25.81-17.27-36.08c-5.29-6.37-11.65-11.87-18.9-16.35
					c-5.62-3.47-11.72-6.49-18.66-9.25c-0.77-0.31-1.22-1.12-1.06-1.93c0.16-0.82,0.87-1.41,1.7-1.41h56.8V99.48h-57.14
					c-0.82,0-1.52-0.57-1.69-1.37c-0.17-0.8,0.24-1.61,0.99-1.94c1.3-0.58,2.56-1.13,3.78-1.67c2.54-1.11,4.93-2.16,7.27-3.29
					c17.7-8.52,30.71-21.92,38.66-39.82c4.7-10.58,7.23-21.85,7.53-33.52h-28.95c0.12,5.41-0.61,10.38-2.22,15.11
					c-3.82,11.19-10.77,20.24-20.67,26.89c-2.38,1.6-4.85,3.03-7.47,4.55c-1.23,0.71-2.49,1.44-3.8,2.22
					c-0.54,0.32-1.2,0.33-1.74,0.02c-0.54-0.31-0.88-0.88-0.88-1.51V18.38H98.84v46.47c0,0.61-0.32,1.18-0.85,1.49
					s-1.17,0.33-1.71,0.03c-0.93-0.5-1.83-0.98-2.71-1.44c-1.86-0.98-3.61-1.9-5.32-2.94c-10.39-6.32-17.92-14.74-22.38-25
					c-2.62-6.04-3.88-12.46-3.75-19.11H32.99c0.37,8.65,1.74,16.65,4.19,24.4c3.93,12.43,9.93,22.81,18.34,31.73
					c8.91,9.44,19.64,16.37,32.82,21.2c0.6,0.22,1.24,0.52,1.84,1.18c0.46,0.51,0.58,1.24,0.3,1.87s-0.9,1.03-1.58,1.03H32.69v28.36
					h57.06c0.82,0,1.52,0.57,1.69,1.37c0.17,0.8-0.25,1.61-0.99,1.94c-1.27,0.56-2.5,1.1-3.69,1.61c-2.42,1.05-4.71,2.04-6.93,3.11
					c-21.38,10.25-35.82,27.14-42.9,50.21c-2.41,7.84-3.67,15.66-3.76,23.26c0,0.04,0,0.09,0,0.13H62.1
					c-0.42-11.92,3.69-22.74,12.54-33.01c5.14-5.97,11.93-10.89,20.77-15.04c0.38-0.18,0.71-0.22,1.01-0.26
					c0.1-0.01,0.22-0.03,0.36-0.06c0.51-0.1,1.03,0.04,1.42,0.37s0.63,0.82,0.63,1.33v46.04h27.83v-45.97
					c0-0.49,0.21-0.96,0.57-1.29c0.37-0.33,0.85-0.49,1.34-0.43c0.15,0.02,0.27,0.02,0.38,0.03c0.35,0.02,0.79,0.04,1.27,0.26
					c10.66,5.03,18.5,11.25,23.98,19C160.98,189.8,164.03,199.31,163.51,209.27z"/>

</svg>
