<?xml version="1.0" encoding="utf-8"?>
<!-- Generator: Adobe Illustrator 24.0.0, SVG Export Plug-In . SVG Version: 6.00 Build 0)  -->
<svg version="1.1" baseProfile="basic" id="Capa_1" xmlns="http://www.w3.org/2000/svg" xmlns:xlink="http://www.w3.org/1999/xlink"
	 x="0px" y="0px" viewBox="0 0 226.77 226.77" xml:space="preserve">
<g>
	<path fill="none" stroke="#000000" stroke-width="3.4632" stroke-linejoin="round" stroke-miterlimit="10" d="M193.55,211
		c-10.78,0-21.57,0-32.35,0c-0.01-0.25-0.05-0.51-0.03-0.76c0.85-10.84-2.81-20.39-8.91-29.02c-5.91-8.37-14.11-14.09-23.31-18.44
		c-0.25-0.12-0.57-0.07-1.09-0.13c0,15.97,0,31.79,0,47.7c-10.51,0-20.79,0-31.3,0c0-16.03,0-31.84,0-47.77
		c-0.48,0.09-0.74,0.09-0.96,0.19c-7.65,3.6-14.65,8.17-20.19,14.6c-8.29,9.62-12.98,20.63-12.03,33.61c-10.78,0-21.57,0-32.35,0
		c-0.05-0.63-0.15-1.26-0.14-1.88c0.09-8.11,1.46-16.01,3.84-23.74c7.19-23.41,21.65-40.64,43.81-51.27
		c3.34-1.6,6.76-3.01,10.66-4.74c-19.91,0-39.32,0-58.79,0c0-10.72,0-21.19,0-31.83c19.41,0,38.68,0,57.94,0
		c-0.36-0.4-0.76-0.57-1.16-0.72C74.4,92.15,63.11,85.15,53.72,75.19C44.91,65.87,38.84,55,34.98,42.8
		c-2.75-8.69-4.09-17.57-4.33-26.66c10.91,0,21.82,0,32.73,0c-0.4,7,0.74,13.71,3.54,20.16c4.55,10.48,12.03,18.34,21.69,24.21
		c2.46,1.49,5.05,2.76,7.95,4.33c0-16.37,0-32.24,0-48.2c10.51,0,20.81,0,31.39,0c0,16.02,0,31.93,0,48.52
		c4.07-2.43,7.74-4.41,11.19-6.72c9.55-6.42,16.26-15.07,20-26.02c1.81-5.31,2.38-10.73,2.06-16.29c10.78,0,21.57,0,32.35,0
		c0.05,0.57,0.15,1.14,0.13,1.7c-0.3,11.92-2.84,23.36-7.68,34.25c-8.17,18.39-21.37,31.95-39.49,40.67
		c-3.5,1.68-7.08,3.19-11.09,4.98c19.89,0,39.31,0,58.87,0c0,10.62,0,21.02,0,31.68c-19.68,0-39.11,0-58.53,0
		c6.64,2.63,12.93,5.68,18.93,9.38c7.35,4.54,13.82,10.1,19.32,16.72c8.95,10.77,14.7,23.15,17.63,36.83
		C192.94,198.5,193.92,204.69,193.55,211z"/>
</g>
</svg>
