<?xml version="1.0" encoding="UTF-8" standalone="no"?>
<!-- Generator: Adobe Illustrator 24.0.0, SVG Export Plug-In . SVG Version: 6.00 Build 0)  -->

<svg
   version="1.1"
   id="Capa_1"
   x="0px"
   y="0px"
   viewBox="0 0 174.77 188.77"
   xml:space="preserve"
   sodipodi:docname="logoUTN_2.svg"
   width="174.77"
   height="188.77"
   inkscape:version="1.1.1 (3bf5ae0d25, 2021-09-20)"
   xmlns:inkscape="http://www.inkscape.org/namespaces/inkscape"
   xmlns:sodipodi="http://sodipodi.sourceforge.net/DTD/sodipodi-0.dtd"
   xmlns="http://www.w3.org/2000/svg"
   xmlns:svg="http://www.w3.org/2000/svg"><defs
   id="defs9" /><sodipodi:namedview
   id="namedview7"
   pagecolor="#ffffff"
   bordercolor="#666666"
   borderopacity="1.0"
   inkscape:pageshadow="2"
   inkscape:pageopacity="0.0"
   inkscape:pagecheckerboard="0"
   showgrid="false"
   width="226.77px"
   inkscape:snap-global="true"
   inkscape:zoom="1.7903602"
   inkscape:cx="100.25915"
   inkscape:cy="82.385654"
   inkscape:window-width="1920"
   inkscape:window-height="1001"
   inkscape:window-x="-9"
   inkscape:window-y="-9"
   inkscape:window-maximized="1"
   inkscape:current-layer="Capa_1" />
<g
   id="g4"
   transform="matrix(0.91332312,0,0,0.91332312,-13.712102,-8.8058343)">
	<path
   fill="none"
   stroke="#000000"
   stroke-width="3.4632"
   stroke-linejoin="round"
   stroke-miterlimit="10"
   d="m 193.55,211 c -10.78,0 -21.57,0 -32.35,0 -0.01,-0.25 -0.05,-0.51 -0.03,-0.76 0.85,-10.84 -2.81,-20.39 -8.91,-29.02 -5.91,-8.37 -14.11,-14.09 -23.31,-18.44 -0.25,-0.12 -0.57,-0.07 -1.09,-0.13 0,15.97 0,31.79 0,47.7 -10.51,0 -20.79,0 -31.3,0 0,-16.03 0,-31.84 0,-47.77 -0.48,0.09 -0.74,0.09 -0.96,0.19 -7.65,3.6 -14.65,8.17 -20.19,14.6 -8.29,9.62 -12.98,20.63 -12.03,33.61 -10.78,0 -21.57,0 -32.35,0 -0.05,-0.63 -0.15,-1.26 -0.14,-1.88 0.09,-8.11 1.46,-16.01 3.84,-23.74 7.19,-23.41 21.65,-40.64 43.81,-51.27 3.34,-1.6 6.76,-3.01 10.66,-4.74 -19.91,0 -39.32,0 -58.79,0 0,-10.72 0,-21.19 0,-31.83 19.41,0 38.68,0 57.94,0 C 87.99,97.12 87.59,96.95 87.19,96.8 74.4,92.15 63.11,85.15 53.72,75.19 44.91,65.87 38.84,55 34.98,42.8 32.23,34.11 30.89,25.23 30.65,16.14 c 10.91,0 21.82,0 32.73,0 -0.4,7 0.74,13.71 3.54,20.16 4.55,10.48 12.03,18.34 21.69,24.21 2.46,1.49 5.05,2.76 7.95,4.33 0,-16.37 0,-32.24 0,-48.2 10.51,0 20.81,0 31.39,0 0,16.02 0,31.93 0,48.52 4.07,-2.43 7.74,-4.41 11.19,-6.72 9.55,-6.42 16.26,-15.07 20,-26.02 1.81,-5.31 2.38,-10.73 2.06,-16.29 10.78,0 21.57,0 32.35,0 0.05,0.57 0.15,1.14 0.13,1.7 -0.3,11.92 -2.84,23.36 -7.68,34.25 -8.17,18.39 -21.37,31.95 -39.49,40.67 -3.5,1.68 -7.08,3.19 -11.09,4.98 19.89,0 39.31,0 58.87,0 0,10.62 0,21.02 0,31.68 -19.68,0 -39.11,0 -58.53,0 6.64,2.63 12.93,5.68 18.93,9.38 7.35,4.54 13.82,10.1 19.32,16.72 8.95,10.77 14.7,23.15 17.63,36.83 1.3,6.16 2.28,12.35 1.91,18.66 z"
   id="path2" />
</g>
</svg>
